<svg xmlns="http://www.w3.org/2000/svg" version="1.1" xmlns:xlink="http://www.w3.org/1999/xlink" xmlns:svgjs="http://svgjs.dev/svgjs" width="128" height="128" viewBox="0 0 128 128"><g transform="matrix(0.8046875,0,0,0.8046875,12.323189762796517,8.701096270161287)"><svg viewBox="0 0 144 155" data-background-color="#ffffff" preserveAspectRatio="xMidYMid meet" height="137" width="128" xmlns="http://www.w3.org/2000/svg" xmlns:xlink="http://www.w3.org/1999/xlink"><g id="tight-bounds" transform="matrix(1,0,0,1,0.247191011235941,0.25)"><svg viewBox="0 0 143.5056179775281 154.5" height="154.5" width="143.5056179775281"><g><svg viewBox="0 0 143.5056179775281 154.5" height="154.5" width="143.5056179775281"><g><svg viewBox="0 0 143.5056179775281 154.5" height="154.5" width="143.5056179775281"><g id="textblocktransform"><svg viewBox="0 0 143.5056179775281 154.5" height="154.5" width="143.5056179775281" id="textblock"><g><svg viewBox="0 0 143.5056179775281 154.5" height="154.5" width="143.5056179775281"><g transform="matrix(1,0,0,1,0,0)"><svg width="143.5056179775281" viewBox="0.98 -37.55 36.32 39.11" height="154.5" data-palette-color="#ed1703"><path d="M37.3-13.09L37.3-13.09Q36.89-9.42 35.38-6.6 33.86-3.78 31.49-2.01 29.13-0.24 26.11 0.66 23.1 1.56 19.53 1.56L19.53 1.56Q16.21 1.56 13.48 0.84 10.74 0.12 8.86-1.07 6.98-2.27 5.54-3.99 4.1-5.71 3.25-7.53 2.39-9.35 1.87-11.51 1.34-13.67 1.16-15.54 0.98-17.41 0.98-19.43L0.98-19.43 0.98-21.58Q1.22-25.15 2.64-27.99 4.05-30.83 6.08-32.58 8.11-34.33 10.72-35.49 13.33-36.65 15.8-37.1 18.26-37.55 20.7-37.55L20.7-37.55Q24.63-37.55 27.65-36.61 30.66-35.67 32.57-33.96 34.47-32.25 35.55-30.04 36.62-27.83 36.91-25.1L36.91-25.1 36.91-22.75Q36.91-21.97 31.54-21.97L31.54-21.97Q30.27-21.97 28.02-22.02 25.76-22.07 25.05-22.07L25.05-22.07Q24.93-22.07 24.68-22.05 24.44-22.02 24.32-22.02L24.32-22.02Q23.68-22.02 23.35-22.55 23.02-23.07 22.91-23.83 22.8-24.58 22.64-25.34 22.49-26.1 21.98-26.62 21.48-27.15 20.61-27.15 19.73-27.15 19.07-26.86 18.41-26.56 18.02-25.94 17.63-25.32 17.37-24.68 17.11-24.05 17-23.03 16.89-22.02 16.86-21.33 16.82-20.63 16.8-19.47 16.77-18.31 16.75-17.77L16.75-17.77Q16.75-17.48 16.7-16.7 16.65-15.92 16.65-15.43L16.65-15.43Q16.65-9.35 19.87-9.18L19.87-9.18Q20.75-9.18 21.31-9.81 21.88-10.45 22.08-11.23 22.29-12.01 22.56-12.88 22.83-13.75 23.14-14.06L23.14-14.06 36.43-14.06Q37.23-13.99 37.3-13.09Z" opacity="1" transform="matrix(1,0,0,1,0,0)" fill="#000000" class="wordmark-text-0" data-fill-palette-color="primary" id="text-0"></path></svg></g></svg></g></svg></g></svg></g></svg></g><defs></defs></svg><rect width="143.5056179775281" height="154.5" fill="none" stroke="none" visibility="hidden"></rect></g></svg></g></svg>