<svg xmlns="http://www.w3.org/2000/svg" version="1.1" xmlns:xlink="http://www.w3.org/1999/xlink" xmlns:svgjs="http://svgjs.dev/svgjs" width="2000" height="257" viewBox="0 0 2000 257"><g transform="matrix(1,0,0,1,-1.2120492083670342,-0.628024643982414)"><svg viewBox="0 0 396 51" data-background-color="#ffffff" preserveAspectRatio="xMidYMid meet" height="257" width="2000" xmlns="http://www.w3.org/2000/svg" xmlns:xlink="http://www.w3.org/1999/xlink"><g id="tight-bounds" transform="matrix(1,0,0,1,0.2399857680079549,0.1246284485550575)"><svg viewBox="0 0 395.52 50.75074409291149" height="50.75074409291149" width="395.52"><g><svg viewBox="0 0 395.52 50.75074409291149" height="50.75074409291149" width="395.52"><g><svg viewBox="0 0 395.52 50.75074409291149" height="50.75074409291149" width="395.52"><g id="textblocktransform"><svg viewBox="0 0 395.52 50.75074409291149" height="50.75074409291149" width="395.52" id="textblock"><g><svg viewBox="0 0 395.52 50.75074409291149" height="50.75074409291149" width="395.52"><g transform="matrix(1,0,0,1,0,0)"><svg width="395.52" viewBox="0.9800000190734863 -37.54999923706055 304.78997802734375 39.11000061035156" height="50.75074409291149" data-palette-color="#ed1703"><path d="M37.3-13.09L37.3-13.09Q36.89-9.42 35.38-6.6 33.86-3.78 31.49-2.01 29.13-0.24 26.11 0.66 23.1 1.56 19.53 1.56L19.53 1.56Q16.21 1.56 13.48 0.84 10.74 0.12 8.86-1.07 6.98-2.27 5.54-3.99 4.1-5.71 3.25-7.53 2.39-9.35 1.87-11.51 1.34-13.67 1.16-15.54 0.98-17.41 0.98-19.43L0.98-19.43 0.98-21.58Q1.22-25.15 2.64-27.99 4.05-30.83 6.08-32.58 8.11-34.33 10.72-35.49 13.33-36.65 15.8-37.1 18.26-37.55 20.7-37.55L20.7-37.55Q24.63-37.55 27.65-36.61 30.66-35.67 32.57-33.96 34.47-32.25 35.55-30.04 36.62-27.83 36.91-25.1L36.91-25.1 36.91-22.75Q36.91-21.97 31.54-21.97L31.54-21.97Q30.27-21.97 28.02-22.02 25.76-22.07 25.05-22.07L25.05-22.07Q24.93-22.07 24.68-22.05 24.44-22.02 24.32-22.02L24.32-22.02Q23.68-22.02 23.35-22.55 23.02-23.07 22.91-23.83 22.8-24.58 22.64-25.34 22.49-26.1 21.98-26.62 21.48-27.15 20.61-27.15 19.73-27.15 19.07-26.86 18.41-26.56 18.02-25.94 17.63-25.32 17.37-24.68 17.11-24.05 17-23.03 16.89-22.02 16.86-21.33 16.82-20.63 16.8-19.47 16.77-18.31 16.75-17.77L16.75-17.77Q16.75-17.48 16.7-16.7 16.65-15.92 16.65-15.43L16.65-15.43Q16.65-9.35 19.87-9.18L19.87-9.18Q20.75-9.18 21.31-9.81 21.88-10.45 22.08-11.23 22.29-12.01 22.56-12.88 22.83-13.75 23.14-14.06L23.14-14.06 36.43-14.06Q37.23-13.99 37.3-13.09ZM49.66 0.63L46.77 0.63Q46.09 0.63 45.19 0.67 44.28 0.71 43.8 0.73 43.31 0.76 42.69 0.72 42.06 0.68 41.75 0.55 41.43 0.42 41.07 0.15 40.72-0.12 40.56-0.59 40.4-1.05 40.29-1.73 40.18-2.42 40.18-3.37L40.18-3.37Q40.18-8.64 40.38-17.76 40.57-26.88 40.57-31.15L40.57-31.15Q40.57-36.43 41.11-36.72L41.11-36.72 50.19-36.72Q52.61-36.72 53.79-36.44 54.98-36.16 55.37-35.6 55.76-35.03 55.76-33.89L55.76-33.89Q55.76-33.54 55.71-32.56 55.66-31.57 55.66-30.91L55.66-30.91 55.66-29.79Q55.66-29 55.59-27.44 55.52-25.88 55.52-25.1L55.52-25.1 55.52-24.61Q55.56-24.46 55.56-24.22L55.56-24.22 56.54-24.22Q56.96-24.22 57.81-24.19 58.66-24.17 59.08-24.17L59.08-24.17Q60.2-24.17 60.74-24.32L60.74-24.32 60.74-34.47Q60.74-35.69 60.86-36.22 60.98-36.74 61.2-36.88 61.42-37.01 62.01-37.01L62.01-37.01Q62.33-37.01 63.03-36.99 63.74-36.96 64.06-36.96L64.06-36.96 65.87-37.04Q67.7-37.11 69.14-37.11L69.14-37.11Q75.78-37.11 75.78-35.64L75.78-35.64Q75.78-35.25 75.8-34.52 75.83-33.79 75.83-33.4L75.83-33.4Q75.83-32.54 75.8-30.91 75.78-29.27 75.78-28.42L75.78-28.42Q75.78-25.88 75.85-20.85 75.93-15.82 75.93-13.28L75.93-13.28Q75.93-13.06 75.9-12.73 75.88-12.4 75.88-12.3L75.88-12.3 75.88-11.13Q75.88-9.57 75.93-8.79L75.93-8.79 75.93-8.25Q75.88-8.15 75.88-7.96L75.88-7.96Q75.88-6.67 75.93-4.03 75.97-1.39 75.97-0.1L75.97-0.1Q75.8 0.78 71.29 0.78L71.29 0.78 61.13 0.78 60.4-0.24 60.4-1.86Q60.4-3.49 60.42-6.69 60.45-9.89 60.45-11.52L60.45-11.52Q60.45-12.08 60.31-12.29 60.18-12.5 59.76-12.5L59.76-12.5 58.88-12.5Q57.22-12.5 55.86-12.3L55.86-12.3Q55.86-10.28 55.81-6.21 55.76-2.15 55.76-0.1L55.76-0.1Q55.47 0.63 49.66 0.63L49.66 0.63ZM80.61-0.88L80.61-0.88 80.61-1.81Q80.61-5.98 80.71-14.14 80.81-22.29 80.81-26.46L80.81-26.46 80.81-36.57 109.22-36.57 109.22-28.56Q109.22-28.49 109.22-28.2 109.22-27.91 109.22-27.81 109.22-27.71 109.2-27.45 109.17-27.2 109.11-27.1 109.05-27 108.94-26.82 108.83-26.64 108.69-26.56 108.54-26.49 108.3-26.43 108.05-26.37 107.76-26.37L107.76-26.37 107.08-26.37Q100.75-26.37 95.55-26.56L95.55-26.56Q95.5-26.17 95.39-25.35 95.28-24.54 95.22-23.91 95.16-23.29 95.16-22.71L95.16-22.71 106.78-22.71Q107.51-22.71 107.76-22.51 108-22.31 108-21.88L108-21.88Q108-21.75 107.98-21.48 107.95-21.22 107.95-21.09L107.95-21.09Q107.95-19.92 108.03-17.63 108.1-15.33 108.1-14.16L108.1-14.16Q108.03-13.67 107.71-13.67L107.71-13.67Q107.56-13.67 107.47-13.77L107.47-13.77Q99.75-13.38 96.04-13.38L96.04-13.38 95.41-13.38 95.41-9.86Q97.58-9.86 101.69-10.06 105.81-10.25 107.86-10.25L107.86-10.25Q109.47-10.25 109.71-9.57L109.71-9.57 109.71-7.71Q109.71-6.54 109.76-4.25 109.81-1.95 109.81-0.78L109.81-0.78Q109.81 0.44 108.83 0.44L108.83 0.44Q107.56 0.44 104.93 0.42 102.29 0.39 100.92 0.39L100.92 0.39Q97.41 0.39 90.86 0.57 84.32 0.76 81.39 0.78L81.39 0.78 80.71 0Q80.61-0.68 80.61-0.88ZM119.79 0.88L109.39-36.01Q109.39-36.72 110.22-36.72L110.22-36.72Q112.59-36.72 117.14-36.77 121.7-36.82 123.94-36.82L123.94-36.82Q124.63-36.82 125.11-36.13L125.11-36.13 129.31-11.82Q129.7-14.16 130.71-18.42 131.71-22.68 132-24.07L132-24.07 134.44-36.28Q134.64-36.87 144.45-36.87L144.45-36.87 148.36-36.87Q148.82-36.69 148.94-36.04L148.94-36.04 143.47-16.26Q143.3-15.6 142.83-13.34 142.35-11.08 141.87-9.02 141.4-6.96 140.79-4.71 140.18-2.47 139.48-1 138.79 0.46 138.15 0.68L138.15 0.68Q137.27 0.68 135.54 0.61 133.81 0.54 132.93 0.54L132.93 0.54 131.17 0.54Q129.51 0.68 127.54 0.73 125.58 0.78 123.36 0.81 121.14 0.83 119.79 0.88L119.79 0.88ZM143.23 0L143.23 0Q144.74-5.59 146.57-11.35 148.4-17.11 151.13-25.13 153.85-33.15 154.85-36.23L154.85-36.23Q155.14-36.72 155.24-36.82L155.24-36.82 159.34-36.82Q160.78-36.82 163.59-36.87 166.4-36.91 167.84-36.91L167.84-36.91 171.94-36.91Q172.3-36.91 172.55-36.9 172.79-36.89 173.13-36.84 173.48-36.79 173.68-36.69 173.89-36.6 174.04-36.4 174.18-36.21 174.18-35.94L174.18-35.94 185.44-0.27Q185.44 0.22 185.09 0.4 184.73 0.59 183.75 0.59L183.75 0.59 181.51 0.59Q180.53 0.59 178.6 0.61 176.67 0.63 175.7 0.63L175.7 0.63Q175.41 0.63 174.51 0.67 173.62 0.71 173.01 0.7 172.4 0.68 171.66 0.62 170.91 0.56 170.46 0.35 170.01 0.15 169.89-0.2L169.89-0.2 169.89-1.81Q169.64-3.03 169.03-4.05 168.42-5.08 167.74-5.08L167.74-5.08 159.34-5.08 158.07 0.1Q157.8 0.68 155.34 0.68L155.34 0.68 153.38 0.68Q152.33 0.68 150.26 0.76 148.18 0.83 147.13 0.83L147.13 0.83 146.45 0.83Q146.06 0.83 145.22 0.85 144.37 0.88 143.91 0.88L143.91 0.88Q143.72 0.68 143.23 0ZM162.12-23.29L160.17-14.82 160.85-13.67 162.47-13.67Q164.42-13.67 166.04-13.9 167.67-14.14 167.67-14.65L167.67-14.65 164.52-28.71Q164.08-28.71 163.33-27.05 162.59-25.39 162.12-23.29L162.12-23.29ZM186.88-32.62L186.88-32.62Q186.88-36.6 187.71-37.06L187.71-37.06Q187.95-37.01 188.39-37.01L188.39-37.01 189.17-37.01Q189.93-37.01 191.66-37.06 193.4-37.11 194.3-37.11L194.3-37.11Q197.77-37.11 199.9-36.83 202.04-36.55 202.31-35.79L202.31-35.79 202.01-10.6 202.55-10.6Q204.5-10.69 205.29-10.68 206.07-10.67 208.15-10.58 210.24-10.5 212.17-10.5L212.17-10.5Q213.76-10.5 214.53-10.31 215.3-10.13 215.3-9.57L215.3-9.57 215.3-0.2Q214.98 0.68 204.41 0.68L204.41 0.68 187.51 0.68Q186.93-0.17 186.93-2.05L186.93-2.05 186.93-8.98Q186.93-12.04 186.97-18.02 187.02-24 187.02-27.05L187.02-27.05Q187.02-27.61 186.95-29.54 186.88-31.47 186.88-32.62ZM233.02 0.63L217.25 0.63Q217.34-6.47 217.59-9.77L217.59-9.77Q217.59-20.02 217.88-30.57L217.88-30.57Q217.78-32.62 217.78-33.59L217.78-33.59 217.78-34.33Q217.69-35.4 217.69-36.08L217.69-36.08Q217.69-36.55 218.12-36.91L218.12-36.91Q222.13-36.62 230.33-36.62L230.33-36.62Q232.28-36.62 233.02-36.72L233.02-36.72 233.02 0.63ZM238.04-0.88L238.04-0.88 238.04-1.81Q238.04-5.98 238.14-14.14 238.24-22.29 238.24-26.46L238.24-26.46 238.24-36.57 266.66-36.57 266.66-28.56Q266.66-28.49 266.66-28.2 266.66-27.91 266.66-27.81 266.66-27.71 266.63-27.45 266.61-27.2 266.55-27.1 266.49-27 266.38-26.82 266.27-26.64 266.12-26.56 265.97-26.49 265.73-26.43 265.49-26.37 265.19-26.37L265.19-26.37 264.51-26.37Q258.19-26.37 252.99-26.56L252.99-26.56Q252.94-26.17 252.83-25.35 252.72-24.54 252.66-23.91 252.59-23.29 252.59-22.71L252.59-22.71 264.22-22.71Q264.95-22.71 265.19-22.51 265.44-22.31 265.44-21.88L265.44-21.88Q265.44-21.75 265.41-21.48 265.39-21.22 265.39-21.09L265.39-21.09Q265.39-19.92 265.46-17.63 265.53-15.33 265.53-14.16L265.53-14.16Q265.46-13.67 265.14-13.67L265.14-13.67Q265-13.67 264.9-13.77L264.9-13.77Q257.18-13.38 253.47-13.38L253.47-13.38 252.84-13.38 252.84-9.86Q255.01-9.86 259.13-10.06 263.24-10.25 265.29-10.25L265.29-10.25Q266.9-10.25 267.15-9.57L267.15-9.57 267.15-7.71Q267.15-6.54 267.19-4.25 267.24-1.95 267.24-0.78L267.24-0.78Q267.24 0.44 266.27 0.44L266.27 0.44Q265 0.44 262.36 0.42 259.72 0.39 258.36 0.39L258.36 0.39Q254.84 0.39 248.3 0.57 241.75 0.76 238.83 0.78L238.83 0.78 238.14 0Q238.04-0.68 238.04-0.88ZM305.57 0.1L305.57 0.1Q305.03 0.63 303.31 0.73 301.59 0.83 299.08 0.68 296.56 0.54 296.39 0.54L296.39 0.54Q294.73 0.54 294 0.49L294 0.49 291.56 0.49Q291.02 0.32 290.65-1.11 290.29-2.54 289.93-5.21 289.58-7.89 289.56-8.06L289.56-8.06Q289.46-10.47 288.77-11.24 288.09-12.01 286.28-12.01L286.28-12.01 285.21-12.01 285.21-0.1Q285.16 0.2 284.7 0.39 284.23 0.59 283.37 0.65 282.5 0.71 281.83 0.72 281.16 0.73 280.06 0.71 278.96 0.68 278.72 0.68L278.72 0.68 275.2 0.68Q272.22 0.68 270.71 0.73L270.71 0.73Q270.37 0.59 270.02 0.39L270.02 0.39 270.02-36.04Q270.02-36.72 271.98-36.72L271.98-36.72 293.27-36.72Q298.81-36.57 301.7-34.08 304.59-31.59 304.59-27.05L304.59-27.05Q304.59-21.14 298.64-18.41L298.64-18.41Q299.74-18.07 300.61-17.46 301.49-16.85 302.08-16.15 302.67-15.45 303.11-14.48 303.54-13.5 303.79-12.65 304.03-11.79 304.22-10.62 304.4-9.45 304.47-8.59 304.55-7.74 304.66-6.56 304.77-5.37 304.84-4.69L304.84-4.69 304.84-2.54Q304.91-2.15 305.29-1.44 305.67-0.73 305.77-0.39L305.77-0.39Q305.77 0.1 305.57 0.1ZM285.06-26.37L285.06-26.37Q285.06-24.9 285.09-24.19 285.11-23.49 285.36-22.34 285.6-21.19 286.09-20.7L286.09-20.7Q287.11-20.7 288.03-20.92 288.94-21.14 289.8-21.63 290.65-22.12 291.15-23.08 291.65-24.05 291.65-25.39L291.65-25.39Q291.65-26.15 291.39-26.72 291.12-27.29 290.61-27.64 290.09-27.98 289.59-28.19 289.09-28.39 288.37-28.48 287.65-28.56 287.24-28.59 286.82-28.61 286.23-28.61L286.23-28.61 285.65-28.61Q285.28-28.44 285.17-27.93 285.06-27.42 285.06-26.37Z" opacity="1" transform="matrix(1,0,0,1,0,0)" fill="#ffffff" class="wordmark-text-0" data-fill-palette-color="primary" id="text-0"></path></svg></g></svg></g></svg></g></svg></g></svg></g><defs></defs></svg><rect width="395.52" height="50.75074409291149" fill="none" stroke="none" visibility="hidden"></rect></g></svg></g></svg>